<svg preserveAspectRatio="none" overflow="visible" style="display: block;" width="43.2727" height="43.2727" viewBox="0 0 43.2727 43.2727" fill="none" xmlns="http://www.w3.org/2000/svg">
<g id="vaccines">
<mask id="mask0_0_13" style="mask-type:alpha" maskUnits="userSpaceOnUse" x="0" y="0" width="44" height="44">
<rect id="Bounding box" width="43.2727" height="43.2727" fill="#D9D9D9"/>
</mask>
<g mask="url(#mask0_0_13)">
<path id="vaccines_2" d="M14.4242 40.5682L10.8182 37.8636V30.6515H9.01515C8.02348 30.6515 7.17456 30.2984 6.46837 29.5922C5.76218 28.886 5.40909 28.0371 5.40909 27.0455V13.5227C4.89823 13.5227 4.47001 13.3499 4.12443 13.0044C3.77885 12.6588 3.60606 12.2306 3.60606 11.7197C3.60606 11.2088 3.77885 10.7806 4.12443 10.435C4.47001 10.0895 4.89823 9.91667 5.40909 9.91667H10.8182V7.21212H9.91667C9.40581 7.21212 8.97759 7.03933 8.63201 6.69375C8.28643 6.34817 8.11364 5.91995 8.11364 5.40909C8.11364 4.89823 8.28643 4.47001 8.63201 4.12443C8.97759 3.77885 9.40581 3.60606 9.91667 3.60606H15.3258C15.8366 3.60606 16.2648 3.77885 16.6104 4.12443C16.956 4.47001 17.1288 4.89823 17.1288 5.40909C17.1288 5.91995 16.956 6.34817 16.6104 6.69375C16.2648 7.03933 15.8366 7.21212 15.3258 7.21212H14.4242V9.91667H19.8333C20.3442 9.91667 20.7724 10.0895 21.118 10.435C21.4636 10.7806 21.6364 11.2088 21.6364 11.7197C21.6364 12.2306 21.4636 12.6588 21.118 13.0044C20.7724 13.3499 20.3442 13.5227 19.8333 13.5227V27.0455C19.8333 28.0371 19.4802 28.886 18.7741 29.5922C18.0679 30.2984 17.2189 30.6515 16.2273 30.6515H14.4242V40.5682ZM9.01515 27.0455H16.2273V24.3409H13.072C12.7114 24.3409 12.3958 24.2057 12.1254 23.9352C11.8549 23.6648 11.7197 23.3492 11.7197 22.9886C11.7197 22.628 11.8549 22.3125 12.1254 22.042C12.3958 21.7716 12.7114 21.6364 13.072 21.6364H16.2273V18.9318H13.072C12.7114 18.9318 12.3958 18.7966 12.1254 18.5261C11.8549 18.2557 11.7197 17.9402 11.7197 17.5795C11.7197 17.2189 11.8549 16.9034 12.1254 16.633C12.3958 16.3625 12.7114 16.2273 13.072 16.2273H16.2273V13.5227H9.01515V27.0455ZM27.0455 39.6667C26.0538 39.6667 25.2049 39.3136 24.4987 38.6074C23.7925 37.9012 23.4394 37.0523 23.4394 36.0606V24.3409C23.4394 23.4694 23.5896 22.7482 23.8902 22.1773C24.1907 21.6063 24.5062 21.1105 24.8367 20.6898C25.1673 20.2691 25.4678 19.931 25.7383 19.6756C26.0087 19.4201 26.1439 19.1722 26.1439 18.9318V18.0303C25.6331 18.0303 25.2049 17.8575 24.8593 17.5119C24.5137 17.1664 24.3409 16.7381 24.3409 16.2273C24.3409 15.7164 24.5137 15.2882 24.8593 14.9426C25.2049 14.597 25.6331 14.4242 26.1439 14.4242H35.1591C35.67 14.4242 36.0982 14.597 36.4438 14.9426C36.7893 15.2882 36.9621 15.7164 36.9621 16.2273C36.9621 16.7381 36.7893 17.1664 36.4438 17.5119C36.0982 17.8575 35.67 18.0303 35.1591 18.0303V18.9318C35.1591 19.1722 35.3093 19.4427 35.6098 19.7432C35.9104 20.0437 36.2409 20.4043 36.6015 20.825C36.9321 21.2457 37.2251 21.7415 37.4805 22.3125C37.7359 22.8835 37.8636 23.5596 37.8636 24.3409V36.0606C37.8636 37.0523 37.5105 37.9012 36.8044 38.6074C36.0982 39.3136 35.2492 39.6667 34.2576 39.6667H27.0455ZM27.0455 25.2424H34.2576V24.3409C34.2576 23.8902 34.1223 23.4995 33.8519 23.1689C33.5814 22.8384 33.2809 22.4778 32.9504 22.0871C32.6198 21.6965 32.3043 21.2607 32.0038 20.7799C31.7033 20.2991 31.553 19.6831 31.553 18.9318V18.0303H29.75V18.9318C29.75 19.653 29.6073 20.254 29.3218 20.7348C29.0363 21.2157 28.7283 21.6514 28.3977 22.042C28.0672 22.4327 27.7592 22.8008 27.4737 23.1464C27.1882 23.492 27.0455 23.8902 27.0455 24.3409V25.2424ZM27.0455 30.6515H34.2576V27.947H27.0455V30.6515ZM27.0455 36.0606H34.2576V33.3561H27.0455V36.0606Z" fill="white"/>
</g>
</g>
</svg>
